<svg xmlns="http://www.w3.org/2000/svg" width="32" height="32" viewBox="0 0 32 32" role="img" aria-labelledby="title desc">
  <title id="title">Artemis Moon ARMN icon</title>
  <desc id="desc">A blue Artemis Moon token badge with a white rocket and lunar crescent.</desc>
  <defs>
    <linearGradient id="badge" x1="5" y1="4" x2="27" y2="28" gradientUnits="userSpaceOnUse">
      <stop stop-color="#1d4ed8"/>
      <stop offset="0.52" stop-color="#0284c7"/>
      <stop offset="1" stop-color="#22d3ee"/>
    </linearGradient>
    <linearGradient id="flame" x1="11" y1="20" x2="17" y2="27" gradientUnits="userSpaceOnUse">
      <stop stop-color="#fde68a"/>
      <stop offset="1" stop-color="#38bdf8"/>
    </linearGradient>
  </defs>
  <rect width="32" height="32" rx="16" fill="#020817"/>
  <circle cx="16" cy="16" r="14.5" fill="url(#badge)" stroke="#93c5fd" stroke-opacity="0.45"/>
  <path d="M22.4 6.9c-3.9.8-7.5 3.1-9.9 6.4l-3.8.4-2.1 4.2 4.1-.6 4 4-0.6 4.1 4.2-2.1.4-3.8c3.3-2.4 5.6-6 6.4-9.9.2-1.1-.6-2-1.7-1.7Z" fill="none" stroke="#f8fafc" stroke-width="1.8" stroke-linecap="round" stroke-linejoin="round"/>
  <circle cx="18.4" cy="12.8" r="1.7" fill="#e0f2fe"/>
  <path d="M10.8 21.2 8.6 23.4M13 23.4l-2.2 2.2" stroke="url(#flame)" stroke-width="1.7" stroke-linecap="round"/>
  <path d="M24.7 21.4a5 5 0 0 1-5.9-5.9 5.4 5.4 0 1 0 5.9 5.9Z" fill="#bae6fd" opacity="0.9"/>
</svg>
